<?xml version="1.0" encoding="utf-8"?>
<!-- Generator: Adobe Illustrator 22.0.1, SVG Export Plug-In . SVG Version: 6.00 Build 0)  -->
<svg version="1.1"
	 id="svg16" xmlns:cc="http://creativecommons.org/ns#" xmlns:dc="http://purl.org/dc/elements/1.1/" xmlns:rdf="http://www.w3.org/1999/02/22-rdf-syntax-ns#" xmlns:svg="http://www.w3.org/2000/svg"
	 xmlns="http://www.w3.org/2000/svg" xmlns:xlink="http://www.w3.org/1999/xlink" x="0px" y="0px" viewBox="0 0 350 143.3"
	 style="enable-background:new 0 0 350 143.3;" xml:space="preserve">
<style type="text/css">
	.st0{fill:none;}
	.st1{fill:#E30016;}
	.st2{font-family:'Arial-Black';}
	.st3{font-size:14.5868px;}
	.st4{fill:#1857A1;}
	.st5{font-family:'Arial-ItalicMT';}
	.st6{font-size:14.5249px;}
</style>
<path id="path2" class="st0" d="M11.7-35.1v142.3h333.1V-35.1H11.7z"/>
<g id="Layer1000">
	<text transform="matrix(0.9488 0 -0.4226 0.9063 123.9494 91.4843)" class="st1 st2 st3">MATERIAIS ELÉTRICOS</text>
	<path id="path8" class="st4" d="M122.5,72.5h17.7l4.4-7.2h19.8l1.6,7.2h17.7l-9.1-41.4h-9h-8.7h-9L122.5,72.5z M293.1,72.5H286
		h-5.8c-3.4,0-5.2-2.8-3.9-6.2L289.1,31H307c-3.8,10.5-7.7,21-11.5,31.6c-0.8,2,0.4,2.7,3.6,2.7h24.6l-3.6,7.2H293.1z M245.3,72.5
		h-5.8h-5.8c-3.4,0-5.3-2.8-4.2-6.2L240.8,31h6.3h11.4h24.2l-3.6,8h-25.2l-2.8,8.7h19.5l-3.6,8h-18.5l-3.2,9.7h27.4l-3.2,7
		L245.3,72.5L245.3,72.5z M201.5,72.5h5.8h5.8c3.4,0,7-2.8,8.1-6.2L232.1,31h-16.6c-3.2,10.5-6.5,21-9.7,31.6
		c-0.6,2-2.2,2.7-5.4,2.7h-11.7l-1.2,7.2H201.5z M149.6,57.3l9.7-15.7l3.4,15.7H149.6z"/>
	<g id="Layer1001">
		<path id="path10" class="st4" d="M51.8,19.4L24.6,88.5c-3.2,8.3,0.7,14.8,10.9,8.6l38.3-23.4l25.6,14.5c2.4,1.3,13.4,4.3,8.7-7.3
			L83.6,20.1c-0.9-2.1-2-4.9-7.1-4.9s-15.4,0-17.7,0C56.4,15.2,53.6,14.8,51.8,19.4L51.8,19.4z M79.2,70.6l13.7-8.4l6.4,15.7
			c1.5,3.8-0.6,3.6-3.3,2.1L79.2,70.6z M90.1,55.3l-50,30c-7.2,4.4-7.2,4.1-4.9-1.7l23.1-58.2c1.3-3.2,3.3-2.9,4.9-2.9
			c1.7,0,6.4,0,9.9,0c3.6,0,4.2,1.6,4.8,3.1L90.1,55.3z"/>
		<path id="path12" class="st1" d="M62.2,31.9L44.9,76.1L118,31.9H62.2z"/>
	</g>
</g>
<rect x="144.7" y="112.5" class="st0" width="149.2" height="16.7"/>
<text transform="matrix(1.1509 1.355362e-03 2.548224e-02 0.9997 145.715 107.1343)" class="st4 st5 st6">AQUI TEM TUDO!</text>
</svg>
