<svg id="Camada_1" data-name="Camada 1" xmlns="http://www.w3.org/2000/svg" viewBox="0 0 447.2 132"><defs><style>.cls-1{font-size:19.98px;font-family:Arial-Black, Arial;font-weight:800;}.cls-1,.cls-3{fill:#ed1c24;}.cls-2{fill:#2c5fac;}.cls-2,.cls-3{fill-rule:evenodd;}</style></defs><text class="cls-1" transform="matrix(0.93, 0, -0.37, 0.93, 160.46, 115.02)">MA</text><text class="cls-1" transform="matrix(0.93, 0, -0.37, 0.93, 191.12, 115.02)">TERIAIS</text><text class="cls-1" transform="matrix(0.93, 0, -0.37, 0.93, 274.6, 115.02)"> </text><text class="cls-1" transform="matrix(0.93, 0, -0.37, 0.93, 280.79, 115.02)">ELÉTRICOS</text><path class="cls-2" d="M196,67.4l12.9-22,4.59,22Zm69.45,21.32h15.45c4.53,0,9.39-3.89,10.79-8.65L306.3,30.73H284.17l-13,44.18c-.79,2.86-2.92,3.75-7.24,3.76H248.34l-1.66,10Zm58.45,0H308.5c-4.53,0-7.05-3.89-5.59-8.65l15.15-49.34h56l-4.81,11.21H335.53l-3.79,12.18h26.05L353,65.33H328.26L324,79h36.65l-4.22,9.77Zm64,0H370.69c-4.53,0-6.89-3.89-5.24-8.65l17.1-49.34h23.93L391.09,74.91c-1,2.86.51,3.75,4.82,3.76h32.94l-4.8,10Zm-228.1,0h23.68l5.92-10.09h26.43L218,88.72h23.68l-12.1-58H193.89Z"/><path class="cls-2" d="M116.54,64.63l-66.89,42c-9.57,6.12-9.65,5.74-6.56-2.42L74,22.74c1.78-4.5,4.4-4.12,6.61-4.12s8.51,0,13.27,0,5.66,2.21,6.47,4.3ZM101.93,86,120.3,74.29l8.57,22c2.06,5.31-.75,5.11-4.38,3ZM65.27,14.3,29,111.11c-4.34,11.57.94,20.64,14.51,12L94.73,90.36l34.19,20.32c3.15,1.87,17.87,6,11.65-10.16L107.8,15.4c-1.14-3-2.74-6.89-9.47-6.89s-20.54,0-23.69,0S67.8,7.93,65.27,14.3Z"/><polygon class="cls-3" points="79.22 31.87 56.11 93.74 153.79 31.87 79.22 31.87"/></svg>